<svg width="101" height="101" viewBox="0 0 101 101" fill="none" xmlns="http://www.w3.org/2000/svg">
<path d="M0.0908203 5.09057C0.0908203 2.32915 2.3294 0.0905762 5.09082 0.0905762H43.3996C46.161 0.0905762 48.3996 2.32915 48.3996 5.09058V43.3994C48.3996 46.1608 46.161 48.3994 43.3996 48.3994H5.09082C2.32939 48.3994 0.0908203 46.1608 0.0908203 43.3994V5.09057Z" fill="#168CE9"/>
<path d="M56.7822 48.3994C54.0208 48.3994 51.7822 46.1608 51.7822 43.3994V5.09055C51.7822 2.32913 54.0208 0.0905555 56.7822 0.0905555H95.091C97.8525 0.0905555 100.091 2.32913 100.091 5.09056V43.3994C100.091 46.1608 97.8524 48.3994 95.091 48.3994H56.7822Z" fill="#168CE9"/>
<path d="M0.0908203 56.7817C0.0908203 54.0203 2.3294 51.7817 5.09082 51.7817H43.3996C46.161 51.7817 48.3996 54.0203 48.3996 56.7817V95.0905C48.3996 97.852 46.161 100.091 43.3996 100.091H5.09082C2.32939 100.091 0.0908203 97.852 0.0908203 95.0905V56.7817Z" fill="#168CE9"/>
<path d="M56.7822 100.091C54.0208 100.091 51.7822 97.8519 51.7822 95.0905V56.7817C51.7822 54.0203 54.0208 51.7817 56.7822 51.7817H95.091C97.8525 51.7817 100.091 54.0203 100.091 56.7817V95.0905C100.091 97.8519 97.8524 100.091 95.091 100.091H56.7822Z" fill="#168CE9"/>
</svg>
